<svg width="50" height="50" viewBox="0 0 50 50" fill="none" xmlns="http://www.w3.org/2000/svg">
<path fill-rule="evenodd" clip-rule="evenodd" d="M41.7689 32.5273L39.9083 32.2383L41.1185 31.6242C45.02 29.6373 48.6688 26.079 48.1811 24.7604C47.6031 23.207 44.1891 24.1103 40.0166 26.9462C37.9394 28.355 37.9575 28.3368 40.1069 26.097C45.6702 20.2628 48.2172 14.4286 46.122 12.3333C44.8757 11.087 43.5388 11.8817 41.8048 14.8801C40.3779 17.3547 40.3781 17.3368 40.8658 15.5667C42.0579 11.2317 40.9017 6.48102 38.6619 6.48102C36.7112 6.48102 35.9887 8.64855 34.1282 13.6158V11.5205C34.0921 5.09021 32.1234 1.08031 29.5044 2.146C28.6012 2.50725 28.2039 4.04257 28.0413 7.8901C27.9149 10.6356 27.8424 10.7619 27.3547 9.19042C25.8375 4.40382 22.6948 1.33319 21.3581 3.3562C20.8885 4.06064 21.1594 8.19716 21.9 11.9542C22.2251 13.6159 22.4961 14.9526 22.46 14.9345C22.4419 14.8984 21.936 14.266 21.3399 13.5074C18.5402 9.96711 15.018 7.92622 12.128 8.16104C9.67145 8.35972 9.47276 8.97385 11.2068 11.2317L13.9525 14.7898C15.5962 16.9212 15.5781 16.8129 14.0608 16.4877C12.4894 16.1626 10.069 16.1626 9.27425 16.5058C7.7028 17.1741 8.33498 17.5895 12.959 22.5929C13.3925 23.0625 13.3383 23.0625 11.6224 22.3039C1.3267 17.7702 1.25445 22.5929 11.55 28.1562C14.0607 29.5109 17.1855 31.4255 17.0952 31.5158C17.059 31.57 16.4993 31.4616 15.8671 31.3171C13.0493 30.6488 7.88342 30.8114 3.29552 31.7687C-2.99027 33.0873 1.85051 34.8574 12.5434 35.1825L16.3365 35.2909L14.2593 36.3024C11.0984 37.8377 5.76992 41.5949 5.48091 42.48C4.93903 44.1598 9.32825 43.094 16.463 39.8066C18.0344 39.0841 19.3169 38.5241 19.3169 38.5602C19.3169 38.5783 18.9016 39.1744 18.3959 39.8427C15.4878 43.672 15.5779 46.6523 18.5944 45.8575C19.5878 45.5866 21.2315 43.7263 25.5665 39.1384C25.8375 46.7609 25.7654 48.0251 27.8607 48.0251C29.1431 48.0251 29.5945 46.9413 29.9196 42.9856L30.0463 41.5406L30.7866 42.2994C37.4517 49.1632 39.7276 48.0794 35.3384 40.1319C34.8869 39.301 34.5437 38.6325 34.5798 38.6325C34.6159 38.6325 35.6276 39.1202 36.8017 39.6982C44.984 43.7442 47.5668 43.3649 43.882 38.5422C43.0692 37.4765 43.015 37.332 43.3763 37.4404C47.8016 38.7228 49.4995 38.6686 49.4995 37.1875C49.4634 35.2187 46.1942 33.2318 41.7689 32.5273ZM13.284 10.4189C12.5795 9.58797 11.857 8.81111 13.6272 9.4433C17.3119 10.7257 20.7799 15.8013 22.5862 21.5633C23.4532 24.3088 23.3992 24.4353 22.2793 22.6471C20.7801 20.2989 21.3581 21.4188 19.1003 18.1314C17.4024 15.6749 14.6025 11.9542 13.284 10.4189ZM12.2183 17.9869C12.0015 17.5895 12.8687 17.6979 14.3137 18.2579C16.8064 19.2332 18.6849 21.4911 21.1775 26.5305C21.9723 28.1381 22.0985 28.4994 21.7553 28.1562C20.1297 26.5486 12.3628 18.2579 12.2183 17.9869ZM14.5483 27.5962C11.4416 25.9345 10.5384 25.3203 9.03925 23.8934C7.63037 22.5568 7.86518 22.2316 11.0261 23.767C13.8078 25.1217 16.2464 26.603 18.3959 28.5718C20.2382 30.2516 19.9852 30.8294 18.2331 29.7096C17.5287 29.258 15.8669 28.3007 14.5483 27.5962ZM4.6681 33.0692C3.81916 32.9247 4.07203 32.8344 8.2808 32.2383C9.36456 32.0758 11.5682 32.1661 13.1577 32.4009C14.8917 32.6718 16.7881 33.1776 17.8899 33.6833C19.1001 34.2433 8.82268 33.7556 4.6681 33.0692ZM16.2824 38.145C12.8866 39.7164 10.6289 40.6916 10.6289 40.5471C10.6289 40.2581 18.1428 35.2367 21.3218 35.2006C21.7553 35.2909 21.7916 35.887 21.3762 36.0495C20.0757 36.5192 18.3776 37.1515 16.2824 38.145ZM19.3349 41.2156C20.7799 38.6869 23.3631 36.465 24.5191 36.465C24.6817 36.465 24.8081 36.5555 24.8803 36.7C24.9526 36.8445 24.9344 37.0069 24.826 37.1152C22.8752 39.5176 21.647 40.5471 19.9852 42.3353C18.5582 43.8887 18.6486 42.4258 19.3349 41.2156ZM22.7309 5.30696C22.7309 4.60251 23.0199 4.92765 23.9772 6.84229C26.3795 11.6108 26.4518 17.0838 26.6866 25.5371C25.2055 18.8901 22.6948 8.43179 22.7309 5.30696ZM38.4813 29.7276C43.0692 26.0609 46.1942 24.1463 46.1942 25.0675C46.1942 26.0067 42.076 29.4928 39.2582 30.9017C37.0004 32.0396 34.0379 33.0511 35.23 32.2564C35.4829 32.0938 36.946 30.9559 38.4813 29.7276ZM41.8773 17.9148C44.0628 14.6636 45.0019 14.3924 44.3517 16.6683C42.9428 21.5091 36.1332 27.6143 32.5929 30.7753C37.5059 24.0379 39.4388 21.5093 41.8773 17.9148ZM32.9542 25.3565C34.5256 20.8408 35.9527 13.6338 37.8132 9.04592C38.2106 8.05247 38.3549 8.25116 38.6619 10.1839C39.258 14.0493 37.2169 20.3533 33.6225 25.7721C31.9607 28.2828 31.9426 28.2646 32.9542 25.3565ZM30.0641 5.16246C30.2267 3.80776 30.3893 4.00645 30.9673 6.22815C31.9607 10.0574 31.4369 17.3909 29.7932 22.6471C29.4681 23.6766 29.7029 8.0886 30.0641 5.16246ZM35.3023 44.3583C34.9772 44.6835 31.708 40.9264 30.9494 39.3369C28.9806 35.1825 29.6127 33.9543 31.8525 37.5849C33.6768 40.5291 35.519 44.1416 35.3023 44.3583ZM42.0579 40.4388C41.2993 40.4388 36.4224 37.9461 33.7491 36.194L32.611 35.4535C32.4665 35.3632 32.3942 35.2006 32.4303 35.038C32.4484 34.8755 32.575 34.749 32.7376 34.6948C33.6407 34.442 34.0562 34.442 34.8148 35.0019C36.603 36.3024 38.5174 35.7605 40.6308 38.0726C41.552 39.066 42.383 40.4388 42.0579 40.4388ZM46.2482 36.754C45.4535 36.5192 42.7983 35.887 41.281 35.5618C39.3664 35.1464 37.5601 34.4962 36.0609 33.9723C36.7654 33.9182 39.6736 33.2498 42.2205 33.864C43.828 34.2433 45.562 35.0742 46.1039 35.6702C46.6458 36.2482 46.7359 36.8985 46.2482 36.754Z" fill="black"/>
</svg>
