<svg width="537" height="537" viewBox="0 0 537 537" fill="none" xmlns="http://www.w3.org/2000/svg">
<path d="M409.947 227.098C408.819 227.098 408.819 229.192 409.947 229.192C412.632 229.192 450.034 228.574 453.175 227.957C453.462 227.914 453.723 227.769 453.912 227.55C454.1 227.331 454.204 227.051 454.204 226.762C454.204 226.473 454.1 226.193 453.912 225.974C453.723 225.754 453.462 225.61 453.175 225.567C443.321 224.278 420.794 226.883 409.947 227.098ZM424.929 281.925C423.694 281.925 423.909 283.993 425.09 284.046C433.843 284.342 447.483 283.885 456.424 283.483C458.062 283.483 458.25 280.798 456.424 280.798C446.409 280.851 434.971 280.985 424.929 281.925ZM426.084 189.32C425.824 189.331 425.576 189.436 425.388 189.616C425.2 189.796 425.083 190.038 425.06 190.298C425.037 190.557 425.109 190.816 425.263 191.026C425.417 191.237 425.642 191.384 425.896 191.441C430.702 192.031 446.302 192.649 451.001 190.662C451.241 190.543 451.436 190.349 451.556 190.109C451.677 189.869 451.715 189.596 451.667 189.332C451.618 189.068 451.485 188.827 451.287 188.646C451.09 188.464 450.838 188.352 450.571 188.326C444.342 187.95 434.354 189.937 426.084 189.32ZM395.421 241.194C418.083 240.872 443.751 239.287 466.627 237.193C468.05 237.193 467.916 234.508 466.439 234.508C443.939 235.072 417.653 236.549 395.287 238.858C394.977 238.876 394.687 239.016 394.481 239.247C394.274 239.479 394.168 239.783 394.186 240.093C394.204 240.403 394.344 240.693 394.576 240.899C394.807 241.106 395.111 241.212 395.421 241.194ZM427.91 121.604C434.219 121.121 440.529 120.745 446.705 119.993C448.477 119.805 448.02 117.308 446.275 117.308C439.992 117.791 433.709 118.597 427.48 119.322C426.03 119.483 426.433 121.711 427.91 121.604ZM391.071 177.613C389.729 177.613 389.675 179.895 391.071 180.003C406.251 180.71 421.461 179.646 436.394 176.834C438.086 176.539 437.817 173.854 436.099 174.149C421.228 176.685 406.155 177.845 391.071 177.613ZM441.039 134.465C443.375 135.029 443.724 131.216 441.576 131.592C431.097 133.291 420.475 133.948 409.866 133.552C408.443 133.552 408.121 135.62 409.571 135.781C420.07 136.835 430.665 136.392 441.039 134.465ZM382.882 239.932C380.788 239.126 371.122 240.469 368.41 240.764C367.094 240.764 367.041 242.885 368.41 242.858L379.392 242.509C384.466 242.321 384.439 240.549 382.882 239.932ZM393.971 356.112C391.716 355.575 375.686 356.783 373.055 356.944C371.659 356.944 371.927 359.092 373.324 359.065C376.17 359.065 391.77 359.065 394.24 358.287C395.341 357.911 394.965 356.327 393.971 356.112ZM373.028 344.754C380.573 345.103 399.261 345.425 406.805 343.627C406.982 343.625 407.156 343.587 407.316 343.514C407.477 343.441 407.621 343.336 407.738 343.204C407.855 343.073 407.944 342.918 407.997 342.75C408.051 342.582 408.069 342.405 408.05 342.23C408.032 342.054 407.976 341.885 407.888 341.732C407.8 341.58 407.68 341.448 407.538 341.344C407.395 341.24 407.232 341.168 407.06 341.131C406.888 341.094 406.71 341.093 406.537 341.129C395.502 341.129 385.272 342.982 373.35 342.499C371.927 342.445 371.551 344.674 373.028 344.754ZM399.073 297.015C400.684 296.72 400.549 294.33 398.858 294.33C386.937 295.538 384.439 295.834 372.223 296.317C371.041 296.317 370.907 298.357 372.223 298.438C381.197 299.034 390.211 298.556 399.073 297.015ZM415.612 280.126C401.006 280.663 385.836 283.133 370.585 283.67C370.312 283.712 370.064 283.851 369.884 284.06C369.705 284.269 369.606 284.536 369.606 284.812C369.606 285.087 369.705 285.354 369.884 285.563C370.064 285.773 370.312 285.911 370.585 285.953C383.231 285.953 403.583 285.362 415.908 282.623C416.165 282.509 416.379 282.316 416.518 282.072C416.657 281.828 416.715 281.545 416.682 281.266C416.648 280.986 416.527 280.725 416.334 280.52C416.142 280.315 415.889 280.177 415.612 280.126ZM465.365 349.533C465.151 349.533 450.41 350.742 447.886 350.661C447.647 350.704 447.428 350.823 447.262 351C447.096 351.178 446.992 351.404 446.964 351.645C446.937 351.886 446.989 352.13 447.111 352.34C447.234 352.55 447.421 352.714 447.644 352.809C450.652 353.373 463.325 353.588 465.929 351.386C466.06 351.242 466.152 351.066 466.195 350.875C466.237 350.685 466.23 350.486 466.173 350.3C466.116 350.113 466.012 349.944 465.87 349.81C465.729 349.676 465.555 349.58 465.365 349.533ZM470.118 290.974C451.511 292.182 430.729 292.88 412.202 294.464C410.752 294.464 411.021 296.639 412.417 296.72C422.432 297.015 458.062 295.189 470.359 293.632C470.535 293.618 470.706 293.57 470.862 293.489C471.019 293.409 471.157 293.297 471.27 293.162C471.383 293.027 471.467 292.871 471.518 292.702C471.569 292.534 471.586 292.357 471.568 292.182C471.534 291.83 471.362 291.506 471.091 291.28C470.819 291.054 470.47 290.944 470.118 290.974ZM400.227 229.917C400.583 229.917 400.925 229.775 401.177 229.524C401.428 229.272 401.57 228.93 401.57 228.574C401.57 228.218 401.428 227.877 401.177 227.625C400.925 227.373 400.583 227.232 400.227 227.232C388.655 227.527 376.975 227.608 365.322 228.494C365.072 228.549 364.848 228.689 364.687 228.889C364.527 229.089 364.439 229.338 364.439 229.595C364.439 229.851 364.527 230.1 364.687 230.3C364.848 230.5 365.072 230.64 365.322 230.695C377.029 230.91 388.655 230.293 400.227 229.917ZM446.006 338.31C441.925 338.31 427.211 339.357 423.721 339.975C422.593 340.163 422.432 342.015 423.721 342.069C427.507 342.257 442.14 341.317 446.382 340.942C448.02 340.995 447.671 338.31 446.006 338.31ZM438.166 353.373L404.416 355.521C402.885 355.521 403.261 357.857 404.765 357.776C411.316 357.481 432.394 356.649 438.301 355.843C439.616 355.682 439.643 353.373 438.166 353.373ZM414.001 119.993C404.094 118.865 373.001 120.745 362.449 121.819C360.999 121.953 360.892 124.208 362.449 124.074C379.794 122.946 396.683 122.57 414.028 122.624C414.331 122.56 414.602 122.392 414.796 122.15C414.989 121.909 415.094 121.607 415.09 121.298C415.087 120.988 414.977 120.689 414.779 120.451C414.58 120.213 414.305 120.051 414.001 119.993ZM416.874 192.461C418.566 192.219 417.948 189.776 416.257 189.776C398.975 191.745 381.587 192.642 364.195 192.461C363.942 192.501 363.713 192.63 363.547 192.825C363.381 193.019 363.29 193.266 363.29 193.522C363.29 193.777 363.381 194.024 363.547 194.219C363.713 194.413 363.942 194.542 364.195 194.582C381.783 195.429 399.411 194.719 416.874 192.461ZM398.643 136.237C398.82 136.22 398.991 136.169 399.148 136.085C399.304 136.002 399.443 135.888 399.555 135.751C399.668 135.613 399.752 135.455 399.802 135.285C399.853 135.115 399.87 134.937 399.851 134.76C399.835 134.584 399.783 134.412 399.699 134.256C399.616 134.099 399.502 133.961 399.365 133.848C399.228 133.736 399.069 133.652 398.899 133.601C398.729 133.55 398.551 133.534 398.375 133.552C386.534 135.029 375.31 135.083 363.631 136.103C362.396 136.237 362.261 138.251 363.631 138.305C375.337 138.494 387.041 137.803 398.643 136.237ZM365.376 178.741C364.033 178.741 364.007 180.862 365.537 180.916C370.356 181.369 375.2 181.495 380.036 181.291C380.254 181.194 380.439 181.036 380.569 180.836C380.698 180.636 380.767 180.402 380.767 180.164C380.767 179.925 380.698 179.692 380.569 179.492C380.439 179.292 380.254 179.133 380.036 179.036C379.553 178.768 367.846 178.741 365.376 178.741ZM331.867 194.206C333.424 194.206 339.197 184.648 342.446 181.372C343.627 180.191 341.694 178.204 340.486 179.331C337.061 182.419 334.095 185.982 331.679 189.91L324.886 183.654C323.49 182.365 321.691 184.567 322.98 185.883C324.269 187.198 329.88 194.206 331.867 194.206ZM313.502 150.36C324.51 151.005 335.948 150.79 348.031 150.87C348.89 150.87 349.4 148.481 348.031 119.966C348.031 117.899 347.843 116.368 347.816 115.804C347.823 115.721 347.812 115.637 347.784 115.559C347.757 115.48 347.713 115.408 347.655 115.348C346.876 114.515 341.802 114.569 330.39 114.865C311.193 115.321 309.072 115.187 309.072 116.288C308.991 116.502 310.199 150.038 313.502 150.36ZM314.254 148.373C312.911 141.204 311.944 126.061 311.112 117.576C318.925 118.033 336.727 117.147 345.695 116.932C345.695 116.932 346.178 140.802 346.393 148.508C335.868 148.266 324.886 147.863 314.146 148.239L314.254 148.373Z" fill="black"/>
<path d="M351.736 201.214C353.991 200.328 351.36 175.303 350.984 168.725C350.965 168.59 350.899 168.466 350.796 168.376C349.185 166.98 315.112 168.833 313.394 168.967C311.675 169.101 313.394 178.445 313.689 184.808C314.307 200.65 315.032 202.019 315.837 202.127C321.69 202.959 346.366 203.308 351.736 201.214ZM315.032 171.168C326.658 170.417 338.445 170.363 348.916 170.309C349.185 176.592 349.614 194.286 350.151 199.066C339.208 200.197 328.196 200.512 317.206 200.005C317.663 196.005 315.434 175.706 315.032 171.168ZM336.888 238.965L343.117 233.326C343.298 233.019 343.378 232.663 343.345 232.308C343.312 231.953 343.167 231.617 342.932 231.349C342.697 231.081 342.383 230.894 342.035 230.815C341.687 230.736 341.323 230.769 340.996 230.91C338.445 232.481 336.131 234.406 334.122 236.629L328.537 231.474C328.235 231.192 327.833 231.043 327.42 231.058C327.007 231.073 326.617 231.251 326.335 231.554C326.054 231.857 325.905 232.259 325.92 232.672C325.935 233.085 326.113 233.475 326.416 233.756L331.786 239.126C326.953 244.227 324.832 247.423 325.315 248.872C325.798 250.322 327.544 249.678 328 249.033C329.88 246.724 332.001 244.093 334.283 241.65C336.546 244.12 339.056 246.351 341.774 248.309C342.055 248.381 342.35 248.377 342.628 248.296C342.906 248.215 343.157 248.061 343.355 247.849C343.553 247.638 343.69 247.377 343.752 247.094C343.814 246.811 343.799 246.516 343.707 246.241C341.686 243.591 339.401 241.153 336.888 238.965ZM338.311 123.859C334.022 127.61 330.517 132.172 328 137.284C325.978 134.863 323.649 132.714 321.073 130.894C319.489 129.793 317.448 131.887 319.005 133.068C322.068 135.775 324.931 138.701 327.571 141.821C328.269 142.546 328.94 142.171 329.531 141.392C332.455 135.695 336.061 130.376 340.271 125.55C341.559 124.127 339.707 122.543 338.311 123.859ZM337.451 299.162C338.848 298.196 344.164 287.939 347.252 284.449C348.46 283.106 346.366 281.253 344.996 282.677C341.321 286.463 338.169 290.726 335.626 295.35L329.37 289.98C328 288.825 326.174 290.893 327.597 292.262C329.02 293.631 335.142 301.149 337.451 299.162ZM357.938 333.584C356.918 331.57 320.187 333.584 319.838 333.584C319.758 333.594 319.681 333.624 319.616 333.671C319.55 333.717 319.497 333.78 319.462 333.853C318.227 335.84 319.462 368.14 320.348 371.147C321.395 374.799 356.998 371.765 358.77 371.926C358.824 371.938 358.879 371.938 358.933 371.926C358.986 371.914 359.036 371.891 359.08 371.857C359.123 371.824 359.159 371.782 359.184 371.733C359.21 371.685 359.224 371.632 359.227 371.577C359.791 367.469 358.072 333.853 357.938 333.584ZM321.556 335.544C332.296 336.001 344.996 335.329 355.897 335.303C356.058 339.786 357.025 366.099 357.159 369.644C345.238 370.181 335.223 369.993 322.523 369.644C322.657 365.16 321.717 339.625 321.556 335.625V335.544Z" fill="black"/>
<path d="M334.524 352.943C336.431 352.943 346.177 353.614 346.956 353.185C347.161 353.068 347.337 352.906 347.469 352.71C347.601 352.514 347.685 352.291 347.717 352.057C347.748 351.823 347.725 351.584 347.648 351.361C347.572 351.138 347.446 350.935 347.278 350.768C345.855 349.265 336.86 349.587 335.357 349.882C333.316 350.258 332.94 351.037 332.994 351.628C333.065 351.986 333.255 352.311 333.532 352.549C333.81 352.788 334.159 352.926 334.524 352.943ZM338.149 274.138C329.342 274.3 320.079 274.622 318.549 274.729C317.958 274.729 317.34 275.239 317.26 280.824C317.26 287.51 318.414 308.694 321.099 308.882C326.469 309.285 354.232 309.392 357.803 309.124C358.367 309.124 358.824 309.124 357.803 295.162C357.239 287.966 355.977 274.89 355.977 274.89C355.87 274.353 355.816 273.87 338.149 274.138ZM353.964 276.501C354.608 286.516 354.957 296.773 356.031 306.842H321.878C320.831 297.149 320.133 287.161 319.381 276.904L353.964 276.501ZM324.885 259.022C335.786 259.022 354.017 257.545 354.179 257.465C355.897 256.579 354.179 232.333 353.615 221.969C353.615 220.116 344.137 220.089 336.27 220.385C332.833 220.385 315.756 221.298 315.81 223.741C316.723 259.693 316.508 257.948 317.179 258.324C319.692 258.979 322.296 259.215 324.885 259.022ZM319.22 256.337C318.602 245.758 318.387 234.535 317.958 224.117C329.107 223.127 340.303 222.75 351.494 222.989C351.494 226.668 352.218 251.128 352.675 255.209C348.701 255.478 323.382 255.666 319.3 256.364L319.22 256.337Z" fill="black"/>
<path d="M520.891 298.76C513.856 107.4 516.809 109.011 515.521 107.883C513.695 106.165 499.599 107.292 496.135 107.48L494.685 78.1334C494.754 77.9564 494.78 77.7653 494.759 77.5764C494.739 77.3875 494.673 77.2063 494.568 77.0482C494.462 76.8901 494.32 76.7597 494.154 76.6682C493.987 76.5767 493.801 76.5267 493.611 76.5224C437.226 75.8243 379.203 79.5565 321.019 83.5034C305.339 84.6043 289.041 85.5709 273.092 87.2624C272.943 87.2384 272.79 87.2479 272.645 87.29C272.5 87.3322 272.366 87.4061 272.253 87.5062C272.14 87.6064 272.051 87.7305 271.992 87.8694C271.932 88.0083 271.905 88.1586 271.911 88.3096C274.864 159.999 283.456 275.884 298.304 404.2C298.465 405.677 310.709 404.388 321.717 403.663C321.861 406.821 322.43 409.946 323.409 412.953C325.02 414.993 524.193 402.642 523.952 394.158C523.092 362.287 521.938 330.013 520.891 298.76ZM505.801 382.478C435.185 393.218 371.685 396.225 300.774 402.347C286.732 280.69 280.959 197.24 273.924 89.1419C295.727 87.8531 376.357 80.4425 492.832 78.9121C495.732 156.965 506.526 373.886 505.72 382.478H505.801ZM168.753 197.884C166.927 197.884 166.954 201.429 167.813 202.771C167.912 202.968 168.067 203.131 168.258 203.241C168.449 203.35 168.667 203.402 168.887 203.389C170.525 203.201 170.444 198.072 168.753 197.884ZM159.167 213.404C160.322 213.699 163.437 213.887 164.162 212.813C165.182 211.309 162.416 197.67 162.067 196.703C161.995 196.506 161.856 196.34 161.674 196.236C161.491 196.132 161.278 196.097 161.071 196.135C160.865 196.174 160.679 196.285 160.547 196.448C160.415 196.611 160.344 196.815 160.349 197.025C160.349 199.469 161.45 207.765 161.879 211.229L159.194 211.39C158.998 211.474 158.83 211.612 158.711 211.79C158.593 211.967 158.528 212.175 158.525 212.388C158.522 212.601 158.581 212.811 158.695 212.991C158.809 213.172 158.973 213.315 159.167 213.404ZM166.471 192.863C167.265 192.646 168.101 192.625 168.906 192.803C169.711 192.98 170.46 193.352 171.089 193.884C172.136 194.824 174.15 193.025 171.277 191.199C169.209 189.803 164.376 189.319 164.887 191.789C164.97 192.133 165.178 192.434 165.471 192.633C165.764 192.831 166.12 192.913 166.471 192.863Z" fill="black"/>
<path d="M245.195 290.463C227.93 273.44 196.865 253.437 168.941 249.463C169.403 247.867 169.403 246.172 168.941 244.576C171.066 242.8 173.042 240.851 174.848 238.75C178.687 234.239 178.607 229.836 173.129 232.064C178.499 220.196 178.499 194.474 176.566 180.029C185.561 185.641 200.731 180.244 198.878 169.289C211.095 172.967 219.043 148.695 203.523 144.318C205.698 125.953 182.178 123.295 174.982 134.008C170.928 122.167 152.294 128.396 153.636 137.686C145.232 128.665 127.082 131.806 124.558 143.056C116.959 136.156 104.42 139.083 105.521 149.259C93.4922 143.674 87.1287 158.066 96.4725 162.684C90.485 165.906 90.6729 179.17 99.8556 179.17C99.8556 188.03 105.226 208.329 118.516 219.445C119.939 231.876 117.389 238.24 112.958 249.758C69.1392 256.417 35.8721 290.597 20.9435 332.993C3.9206 381.323 12.0024 426.968 62.4536 436.581C62.3486 443.03 61.593 449.453 60.1982 455.751C60.173 455.989 60.2344 456.228 60.371 456.424C60.5076 456.62 60.7103 456.76 60.942 456.819C61.1736 456.878 61.4187 456.851 61.6322 456.744C61.8457 456.636 62.0134 456.456 62.1045 456.235C63.9018 449.98 64.8766 443.517 65.0043 437.01C77.1587 438.817 89.5755 436.922 100.638 431.573C111.7 426.223 120.896 417.667 127.028 407.019C134.8 409.971 142.734 412.481 150.79 414.537C176.136 421.706 209.189 428.821 240.496 420.336C239.878 435.345 239.019 447.374 237.677 459.323C237.677 460.504 239.315 460.853 239.502 459.672C240.55 453.389 243.154 425.814 242.993 419.611C262.916 413.49 276.233 399.662 279.509 381.699C285.228 351.251 272.34 317.071 245.195 290.463ZM131.163 174.82C131.861 182.66 131.163 188.245 128.773 191.87C127.887 193.185 126.545 194.555 125.39 194.555C124.504 193.588 118.704 187.574 113.227 191.091C109.656 193.427 109.495 197.965 112.878 203.872C115.296 207.459 117.026 211.466 117.979 215.686C107.696 204.516 104.554 194.045 102.192 179.035C104.921 178.543 107.412 177.165 109.28 175.115C113.979 182.096 125.471 180.7 131.163 174.82ZM114.516 192.863C118.14 190.635 121.497 193.32 124.558 196.005C126.357 197.589 129.31 195.36 130.706 193.32C134.358 188.272 134.036 179.895 133.552 175.706C136.158 178.188 139.619 179.572 143.218 179.572C146.817 179.572 150.278 178.188 152.884 175.706C153.421 183.439 169.639 185.211 173.908 178.794C175.868 192.219 176.808 221.244 170.31 233.407C164.94 235.769 152.723 241.166 146.655 238.777C141.446 236.709 138.815 228.762 132.747 225.352C128.666 223.096 125.175 225.647 128.021 230.212C135.217 241.65 134.573 245.999 128.88 257.76C123.892 256.4 119.226 254.054 115.16 250.859C121.067 242.401 122.678 227.312 121.201 217.27C119.886 208.329 118.516 208.866 114.972 202.261C113.334 199.549 111.884 194.528 114.516 192.863ZM159.812 247.02C159.598 247.119 159.427 247.293 159.333 247.51C159.238 247.726 159.226 247.969 159.299 248.194C159.371 248.419 159.524 248.609 159.727 248.729C159.93 248.849 160.171 248.89 160.402 248.845C162.705 248.434 164.887 247.517 166.793 246.16C166.947 248.664 166.288 251.151 164.913 253.249C164.43 253.92 165.289 255.934 167.034 253.437C166.9 260.847 163.114 270.003 155.838 273.601C150.906 272.71 146.213 270.806 142.054 268.01C137.895 265.214 134.36 261.587 131.673 257.357C139.728 243.556 132.639 233.192 130.277 228.896C128.961 226.426 129.632 226.05 131.78 227.446C136.855 230.668 141.312 239.663 146.226 240.871C155.489 243.1 166.9 237.515 172.485 235.018C175.385 233.702 177.076 232.816 173.586 237.192C168.914 242.965 166.256 244.174 159.812 247.02ZM46.1825 361.615C46.0854 361.834 46.0702 362.08 46.1397 362.308C46.2093 362.537 46.3589 362.733 46.5612 362.86C46.7635 362.987 47.0048 363.037 47.241 363.001C47.4773 362.965 47.6925 362.845 47.8472 362.663C71.3946 325.556 110.354 299.807 130.411 260.096C133.526 267.023 146.843 275.937 155.059 275.937C155.059 282.623 154.388 290.57 153.69 298.196C145.635 296.343 123.86 289.523 119.939 280.609C119.483 279.508 117.711 280.26 118.14 281.361C121.819 291.322 144.534 299.323 153.448 301.015C151.565 321.077 147.835 340.923 142.305 360.3C138.251 374.799 133.042 392.332 125.524 405.3C119.531 415.963 110.36 424.489 99.2901 429.692C88.2203 434.895 75.8032 436.515 63.7692 434.325C14.2042 425.626 6.73985 380.921 23.5748 333.691C39.3089 289.443 73.7574 258.297 113.495 252.39C117.815 255.575 122.537 258.175 127.538 260.122C107.4 298.974 69.005 324.482 46.1825 361.615ZM144.615 361.427C170.705 350.432 198.426 343.801 226.668 341.8C234.723 341.263 242.778 341.29 250.833 341.29C252.015 341.29 252.041 339.357 250.833 339.357C245.355 338.977 239.862 338.878 234.374 339.061C233.058 328.321 213.7 296.987 207.121 288.315C206.953 288.156 206.733 288.062 206.501 288.052C206.27 288.041 206.042 288.114 205.86 288.257C205.678 288.4 205.553 288.604 205.509 288.832C205.464 289.059 205.503 289.295 205.618 289.496C218.801 307.969 229.461 331.49 231.582 339.169C207.981 340.055 171.572 345.64 145.366 358.474C147.837 349.425 157.395 312.104 157.61 275.239C164.994 271.936 170.256 259.988 169.639 251.96C197.478 258.3 223.011 272.243 243.396 292.235C267.319 315.675 281.979 345.935 277.468 378.826C275.079 397.621 261.734 412.174 241.812 417.463C207.47 426.861 172.136 418.698 138.224 408.173C134.941 407.068 131.598 406.154 128.209 405.435C135.072 391.324 140.565 376.587 144.615 361.427Z" fill="black"/>
<path d="M143.299 188.567C143.993 187.542 144.918 186.694 146.001 186.092C147.083 185.491 148.291 185.152 149.528 185.104C151.488 185.104 151.381 182.15 149.528 182.419C147.934 182.586 146.398 183.116 145.039 183.968C143.681 184.819 142.534 185.97 141.688 187.332C140.99 188.433 142.547 189.641 143.299 188.567ZM149.636 196.005C148.535 196.891 148.615 201.375 150.28 201.375C150.661 201.335 151.017 201.167 151.29 200.899C151.563 200.631 151.737 200.278 151.784 199.898C152.401 197.562 150.817 195.172 149.636 196.005ZM147.273 218.183C147.223 217.973 147.109 217.784 146.947 217.641C146.785 217.498 146.583 217.409 146.369 217.385C146.154 217.362 145.937 217.405 145.748 217.51C145.559 217.614 145.407 217.774 145.313 217.968C145.044 218.344 144.534 219.499 145.662 221.835C146.427 223.425 147.749 224.68 149.376 225.362C151.004 226.045 152.825 226.108 154.496 225.54C154.722 225.45 154.907 225.28 155.017 225.063C155.126 224.845 155.152 224.595 155.089 224.36C155.026 224.124 154.879 223.921 154.675 223.787C154.472 223.653 154.226 223.598 153.985 223.633C150.173 224.385 147.971 221.969 147.273 218.183Z" fill="black"/>
</svg>
